<mxfile host="Electron" agent="Mozilla/5.0 (Windows NT 10.0; Win64; x64) AppleWebKit/537.36 (KHTML, like Gecko) draw.io/28.1.2 Chrome/138.0.7204.243 Electron/37.4.0 Safari/537.36" version="28.1.2">
  <diagram name="Page-1" id="Lqive2tv9WN4GJcnl0Zr">
    <mxGraphModel dx="2745" dy="1138" grid="1" gridSize="10" guides="1" tooltips="1" connect="1" arrows="1" fold="1" page="1" pageScale="1" pageWidth="850" pageHeight="1100" math="0" shadow="0">
      <root>
        <mxCell id="0" />
        <mxCell id="1" parent="0" />
        <mxCell id="0Dfa1r7bv34zpl62bsGX-1" value="&lt;div&gt;crm_cust_info&lt;/div&gt;" style="swimlane;fontStyle=0;childLayout=stackLayout;horizontal=1;startSize=30;horizontalStack=0;resizeParent=1;resizeParentMax=0;resizeLast=0;collapsible=1;marginBottom=0;whiteSpace=wrap;html=1;rounded=1;fillColor=#dae8fc;strokeColor=#6c8ebf;fontSize=26;align=center;" parent="1" vertex="1">
          <mxGeometry x="140" y="300" width="360" height="160" as="geometry" />
        </mxCell>
        <mxCell id="0Dfa1r7bv34zpl62bsGX-2" value="cst_id" style="text;strokeColor=none;fillColor=none;align=left;verticalAlign=middle;spacingLeft=4;spacingRight=4;overflow=hidden;points=[[0,0.5],[1,0.5]];portConstraint=eastwest;rotatable=0;whiteSpace=wrap;html=1;fontSize=26;" parent="0Dfa1r7bv34zpl62bsGX-1" vertex="1">
          <mxGeometry y="30" width="360" height="40" as="geometry" />
        </mxCell>
        <mxCell id="0Dfa1r7bv34zpl62bsGX-17" value="cst_key" style="text;strokeColor=none;fillColor=none;align=left;verticalAlign=middle;spacingLeft=4;spacingRight=4;overflow=hidden;points=[[0,0.5],[1,0.5]];portConstraint=eastwest;rotatable=0;whiteSpace=wrap;html=1;fontSize=26;" parent="0Dfa1r7bv34zpl62bsGX-1" vertex="1">
          <mxGeometry y="70" width="360" height="40" as="geometry" />
        </mxCell>
        <mxCell id="7G2WdFA12JgAC_nuheDP-3" value="&lt;font style=&quot;font-size: 20px;&quot;&gt;CUSTOMER&lt;/font&gt;" style="text;html=1;strokeColor=#82b366;fillColor=#d5e8d4;align=center;verticalAlign=middle;whiteSpace=wrap;overflow=hidden;" vertex="1" parent="0Dfa1r7bv34zpl62bsGX-1">
          <mxGeometry y="110" width="360" height="50" as="geometry" />
        </mxCell>
        <mxCell id="0Dfa1r7bv34zpl62bsGX-5" value="&lt;font style=&quot;font-size: 20px;&quot;&gt;Customer Information&lt;/font&gt;" style="text;html=1;align=center;verticalAlign=middle;whiteSpace=wrap;rounded=0;" parent="1" vertex="1">
          <mxGeometry x="140" y="270" width="390" height="30" as="geometry" />
        </mxCell>
        <mxCell id="0Dfa1r7bv34zpl62bsGX-6" value="&lt;div&gt;crm_prd_info&lt;/div&gt;" style="swimlane;fontStyle=0;childLayout=stackLayout;horizontal=1;startSize=30;horizontalStack=0;resizeParent=1;resizeParentMax=0;resizeLast=0;collapsible=1;marginBottom=0;whiteSpace=wrap;html=1;rounded=1;fillColor=#dae8fc;strokeColor=#6c8ebf;fontSize=26;align=center;" parent="1" vertex="1">
          <mxGeometry x="130" y="760" width="360" height="120" as="geometry" />
        </mxCell>
        <mxCell id="0Dfa1r7bv34zpl62bsGX-7" value="prd_KEY" style="text;strokeColor=none;fillColor=none;align=left;verticalAlign=middle;spacingLeft=4;spacingRight=4;overflow=hidden;points=[[0,0.5],[1,0.5]];portConstraint=eastwest;rotatable=0;whiteSpace=wrap;html=1;fontSize=26;" parent="0Dfa1r7bv34zpl62bsGX-6" vertex="1">
          <mxGeometry y="30" width="360" height="40" as="geometry" />
        </mxCell>
        <mxCell id="7G2WdFA12JgAC_nuheDP-1" value="&lt;font style=&quot;font-size: 20px;&quot;&gt;PRODUCT&lt;/font&gt;" style="text;html=1;strokeColor=#b85450;fillColor=#f8cecc;align=center;verticalAlign=middle;whiteSpace=wrap;overflow=hidden;" vertex="1" parent="0Dfa1r7bv34zpl62bsGX-6">
          <mxGeometry y="70" width="360" height="50" as="geometry" />
        </mxCell>
        <mxCell id="0Dfa1r7bv34zpl62bsGX-8" value="&lt;font style=&quot;font-size: 20px;&quot;&gt;Current &amp;amp; History Product Information&lt;/font&gt;" style="text;html=1;align=center;verticalAlign=middle;whiteSpace=wrap;rounded=0;" parent="1" vertex="1">
          <mxGeometry x="115" y="730" width="390" height="30" as="geometry" />
        </mxCell>
        <mxCell id="0Dfa1r7bv34zpl62bsGX-9" value="&lt;div&gt;crm_sales_details&lt;/div&gt;" style="swimlane;fontStyle=0;childLayout=stackLayout;horizontal=1;startSize=30;horizontalStack=0;resizeParent=1;resizeParentMax=0;resizeLast=0;collapsible=1;marginBottom=0;whiteSpace=wrap;html=1;rounded=1;fillColor=#dae8fc;strokeColor=#6c8ebf;fontSize=26;align=center;" parent="1" vertex="1">
          <mxGeometry x="-420" y="410" width="450" height="160" as="geometry" />
        </mxCell>
        <mxCell id="0Dfa1r7bv34zpl62bsGX-12" value="cst_id" style="text;strokeColor=none;fillColor=none;align=left;verticalAlign=middle;spacingLeft=4;spacingRight=4;overflow=hidden;points=[[0,0.5],[1,0.5]];portConstraint=eastwest;rotatable=0;whiteSpace=wrap;html=1;fontSize=26;" parent="0Dfa1r7bv34zpl62bsGX-9" vertex="1">
          <mxGeometry y="30" width="450" height="40" as="geometry" />
        </mxCell>
        <mxCell id="0Dfa1r7bv34zpl62bsGX-10" value="prd_KEY" style="text;strokeColor=none;fillColor=none;align=left;verticalAlign=middle;spacingLeft=4;spacingRight=4;overflow=hidden;points=[[0,0.5],[1,0.5]];portConstraint=eastwest;rotatable=0;whiteSpace=wrap;html=1;fontSize=26;" parent="0Dfa1r7bv34zpl62bsGX-9" vertex="1">
          <mxGeometry y="70" width="450" height="40" as="geometry" />
        </mxCell>
        <mxCell id="7G2WdFA12JgAC_nuheDP-6" value="&lt;font style=&quot;font-size: 20px;&quot;&gt;&lt;b&gt;SALES&lt;/b&gt;&lt;/font&gt;" style="text;html=1;strokeColor=#9673a6;fillColor=#e1d5e7;align=center;verticalAlign=middle;whiteSpace=wrap;overflow=hidden;" vertex="1" parent="0Dfa1r7bv34zpl62bsGX-9">
          <mxGeometry y="110" width="450" height="50" as="geometry" />
        </mxCell>
        <mxCell id="0Dfa1r7bv34zpl62bsGX-11" value="&lt;span style=&quot;font-size: 20px;&quot;&gt;Transactional Records about Sales &amp;amp; Order&lt;/span&gt;" style="text;html=1;align=center;verticalAlign=middle;whiteSpace=wrap;rounded=0;" parent="1" vertex="1">
          <mxGeometry x="-395" y="380" width="390" height="30" as="geometry" />
        </mxCell>
        <mxCell id="0Dfa1r7bv34zpl62bsGX-13" style="edgeStyle=orthogonalEdgeStyle;rounded=0;orthogonalLoop=1;jettySize=auto;html=1;entryX=0;entryY=0.5;entryDx=0;entryDy=0;" parent="1" source="0Dfa1r7bv34zpl62bsGX-12" target="0Dfa1r7bv34zpl62bsGX-2" edge="1">
          <mxGeometry relative="1" as="geometry" />
        </mxCell>
        <mxCell id="0Dfa1r7bv34zpl62bsGX-14" style="edgeStyle=orthogonalEdgeStyle;rounded=0;orthogonalLoop=1;jettySize=auto;html=1;exitX=1;exitY=0.5;exitDx=0;exitDy=0;entryX=0;entryY=0.5;entryDx=0;entryDy=0;" parent="1" source="0Dfa1r7bv34zpl62bsGX-10" target="0Dfa1r7bv34zpl62bsGX-7" edge="1">
          <mxGeometry relative="1" as="geometry" />
        </mxCell>
        <mxCell id="0Dfa1r7bv34zpl62bsGX-15" value="&lt;div&gt;erp_cust_az12&lt;/div&gt;" style="swimlane;fontStyle=0;childLayout=stackLayout;horizontal=1;startSize=30;horizontalStack=0;resizeParent=1;resizeParentMax=0;resizeLast=0;collapsible=1;marginBottom=0;whiteSpace=wrap;html=1;rounded=1;fillColor=#fad9d5;strokeColor=#ae4132;fontSize=26;align=center;" parent="1" vertex="1">
          <mxGeometry x="730" y="290" width="360" height="120" as="geometry" />
        </mxCell>
        <mxCell id="0Dfa1r7bv34zpl62bsGX-16" value="cid" style="text;strokeColor=none;fillColor=none;align=left;verticalAlign=middle;spacingLeft=4;spacingRight=4;overflow=hidden;points=[[0,0.5],[1,0.5]];portConstraint=eastwest;rotatable=0;whiteSpace=wrap;html=1;fontSize=26;" parent="0Dfa1r7bv34zpl62bsGX-15" vertex="1">
          <mxGeometry y="30" width="360" height="40" as="geometry" />
        </mxCell>
        <mxCell id="7G2WdFA12JgAC_nuheDP-5" value="&lt;font style=&quot;font-size: 20px;&quot;&gt;CUSTOMER&lt;/font&gt;" style="text;html=1;strokeColor=#82b366;fillColor=#d5e8d4;align=center;verticalAlign=middle;whiteSpace=wrap;overflow=hidden;" vertex="1" parent="0Dfa1r7bv34zpl62bsGX-15">
          <mxGeometry y="70" width="360" height="50" as="geometry" />
        </mxCell>
        <mxCell id="0Dfa1r7bv34zpl62bsGX-18" style="edgeStyle=orthogonalEdgeStyle;rounded=0;orthogonalLoop=1;jettySize=auto;html=1;exitX=1;exitY=0.5;exitDx=0;exitDy=0;entryX=0;entryY=0.5;entryDx=0;entryDy=0;" parent="1" source="0Dfa1r7bv34zpl62bsGX-17" target="0Dfa1r7bv34zpl62bsGX-16" edge="1">
          <mxGeometry relative="1" as="geometry" />
        </mxCell>
        <mxCell id="0Dfa1r7bv34zpl62bsGX-19" value="&lt;font style=&quot;font-size: 20px;&quot;&gt;Extra Customer Information(Birthday)&lt;/font&gt;" style="text;html=1;align=center;verticalAlign=middle;whiteSpace=wrap;rounded=0;" parent="1" vertex="1">
          <mxGeometry x="715" y="260" width="390" height="30" as="geometry" />
        </mxCell>
        <mxCell id="0Dfa1r7bv34zpl62bsGX-20" value="&lt;div&gt;erp_loc_a101&lt;/div&gt;" style="swimlane;fontStyle=0;childLayout=stackLayout;horizontal=1;startSize=30;horizontalStack=0;resizeParent=1;resizeParentMax=0;resizeLast=0;collapsible=1;marginBottom=0;whiteSpace=wrap;html=1;rounded=1;fillColor=#fad7ac;strokeColor=#b46504;fontSize=26;align=center;" parent="1" vertex="1">
          <mxGeometry x="730" y="490" width="360" height="120" as="geometry" />
        </mxCell>
        <mxCell id="0Dfa1r7bv34zpl62bsGX-21" value="cid" style="text;strokeColor=none;fillColor=none;align=left;verticalAlign=middle;spacingLeft=4;spacingRight=4;overflow=hidden;points=[[0,0.5],[1,0.5]];portConstraint=eastwest;rotatable=0;whiteSpace=wrap;html=1;fontSize=26;" parent="0Dfa1r7bv34zpl62bsGX-20" vertex="1">
          <mxGeometry y="30" width="360" height="40" as="geometry" />
        </mxCell>
        <mxCell id="7G2WdFA12JgAC_nuheDP-4" value="&lt;font style=&quot;font-size: 20px;&quot;&gt;CUSTOMER&lt;/font&gt;" style="text;html=1;strokeColor=#82b366;fillColor=#d5e8d4;align=center;verticalAlign=middle;whiteSpace=wrap;overflow=hidden;" vertex="1" parent="0Dfa1r7bv34zpl62bsGX-20">
          <mxGeometry y="70" width="360" height="50" as="geometry" />
        </mxCell>
        <mxCell id="0Dfa1r7bv34zpl62bsGX-22" style="edgeStyle=orthogonalEdgeStyle;rounded=0;orthogonalLoop=1;jettySize=auto;html=1;exitX=0;exitY=0.5;exitDx=0;exitDy=0;entryX=1;entryY=0.5;entryDx=0;entryDy=0;" parent="1" source="0Dfa1r7bv34zpl62bsGX-21" target="0Dfa1r7bv34zpl62bsGX-17" edge="1">
          <mxGeometry relative="1" as="geometry" />
        </mxCell>
        <mxCell id="0Dfa1r7bv34zpl62bsGX-23" value="&lt;font style=&quot;font-size: 20px;&quot;&gt;Extra Customer Information(Country)&lt;/font&gt;" style="text;html=1;align=center;verticalAlign=middle;whiteSpace=wrap;rounded=0;" parent="1" vertex="1">
          <mxGeometry x="720" y="460" width="390" height="30" as="geometry" />
        </mxCell>
        <mxCell id="0Dfa1r7bv34zpl62bsGX-24" value="&lt;div&gt;erp_px_cat_g1v2&lt;/div&gt;" style="swimlane;fontStyle=0;childLayout=stackLayout;horizontal=1;startSize=30;horizontalStack=0;resizeParent=1;resizeParentMax=0;resizeLast=0;collapsible=1;marginBottom=0;whiteSpace=wrap;html=1;rounded=1;fillColor=#ffe6cc;strokeColor=#d79b00;fontSize=26;align=center;" parent="1" vertex="1">
          <mxGeometry x="725" y="760" width="360" height="120" as="geometry" />
        </mxCell>
        <mxCell id="0Dfa1r7bv34zpl62bsGX-25" value="id" style="text;strokeColor=none;fillColor=none;align=left;verticalAlign=middle;spacingLeft=4;spacingRight=4;overflow=hidden;points=[[0,0.5],[1,0.5]];portConstraint=eastwest;rotatable=0;whiteSpace=wrap;html=1;fontSize=26;" parent="0Dfa1r7bv34zpl62bsGX-24" vertex="1">
          <mxGeometry y="30" width="360" height="40" as="geometry" />
        </mxCell>
        <mxCell id="7G2WdFA12JgAC_nuheDP-2" value="&lt;font style=&quot;font-size: 20px;&quot;&gt;PRODUCT&lt;/font&gt;" style="text;html=1;strokeColor=#b85450;fillColor=#f8cecc;align=center;verticalAlign=middle;whiteSpace=wrap;overflow=hidden;" vertex="1" parent="0Dfa1r7bv34zpl62bsGX-24">
          <mxGeometry y="70" width="360" height="50" as="geometry" />
        </mxCell>
        <mxCell id="0Dfa1r7bv34zpl62bsGX-26" value="&lt;font style=&quot;font-size: 20px;&quot;&gt;Product Categories&lt;/font&gt;" style="text;html=1;align=center;verticalAlign=middle;whiteSpace=wrap;rounded=0;" parent="1" vertex="1">
          <mxGeometry x="715" y="730" width="390" height="30" as="geometry" />
        </mxCell>
        <mxCell id="0Dfa1r7bv34zpl62bsGX-27" style="edgeStyle=orthogonalEdgeStyle;rounded=0;orthogonalLoop=1;jettySize=auto;html=1;entryX=0;entryY=0.5;entryDx=0;entryDy=0;" parent="1" source="0Dfa1r7bv34zpl62bsGX-7" target="0Dfa1r7bv34zpl62bsGX-25" edge="1">
          <mxGeometry relative="1" as="geometry" />
        </mxCell>
        <mxCell id="0Dfa1r7bv34zpl62bsGX-28" value="" style="rounded=1;whiteSpace=wrap;html=1;fillColor=none;dashed=1;" parent="1" vertex="1">
          <mxGeometry x="-460" y="130" width="1000" height="870" as="geometry" />
        </mxCell>
        <mxCell id="0Dfa1r7bv34zpl62bsGX-30" value="" style="rounded=1;whiteSpace=wrap;html=1;fillColor=none;dashed=1;" parent="1" vertex="1">
          <mxGeometry x="590" y="130" width="700" height="870" as="geometry" />
        </mxCell>
        <mxCell id="0Dfa1r7bv34zpl62bsGX-29" value="&lt;font style=&quot;font-size: 40px;&quot;&gt;CRM&lt;/font&gt;" style="text;html=1;align=center;verticalAlign=middle;whiteSpace=wrap;rounded=1;fillColor=#dae8fc;strokeColor=#6c8ebf;" parent="1" vertex="1">
          <mxGeometry x="-15" y="80" width="130" height="50" as="geometry" />
        </mxCell>
        <mxCell id="0Dfa1r7bv34zpl62bsGX-31" value="&lt;font style=&quot;font-size: 40px;&quot;&gt;ERP&lt;/font&gt;" style="text;html=1;align=center;verticalAlign=middle;whiteSpace=wrap;rounded=1;fillColor=#f8cecc;strokeColor=#b85450;" parent="1" vertex="1">
          <mxGeometry x="850" y="80" width="130" height="50" as="geometry" />
        </mxCell>
      </root>
    </mxGraphModel>
  </diagram>
</mxfile>
